<svg width="339" height="73" viewBox="0 0 339 73" fill="none" xmlns="http://www.w3.org/2000/svg">
<path d="M1.14005 11.6619C1.05584 9.58029 2.12756 8.31179 4.35524 7.85644L6.43906 7.46613C6.66429 7.40108 6.85828 7.36855 7.02104 7.36855C7.21636 7.36855 7.39539 7.36855 7.55815 7.36855C9.54383 7.36855 10.7618 8.50695 11.2119 10.7837C11.3869 11.8896 11.6062 13.2882 11.87 14.9795C12.1337 16.6708 12.4529 18.5248 12.8274 20.5414C13.2345 22.558 13.6781 24.6721 14.1582 26.8838C14.6709 29.0956 15.2311 31.2748 15.8387 33.4215C16.4451 35.5356 17.1126 37.5522 17.8413 39.4712C18.57 41.3902 19.3708 43.0815 20.2438 44.5452C21.1169 46.0088 22.0431 47.1797 23.0227 48.0579C24.0335 48.9036 25.1085 49.3264 26.2478 49.3264C27.0616 49.3264 27.8656 49.0825 28.6596 48.5946C29.4862 48.1067 30.2907 47.4725 31.0729 46.6919C31.8538 45.8787 32.5982 44.968 33.3061 43.9597C34.014 42.9514 34.6561 41.9269 35.2325 40.8861C35.8089 39.8452 36.3222 38.8532 36.7723 37.91C37.2536 36.9342 37.6263 36.0885 37.8903 35.373C38.0607 34.755 38.1353 34.1858 38.1142 33.6654C38.1037 33.4052 38.0769 33.145 38.0338 32.8848C37.9907 32.6246 37.9307 32.3481 37.8538 32.0554C37.1537 30.0388 36.6001 28.0222 36.193 26.0057C35.7859 23.9891 35.535 21.8099 35.4402 19.468C35.385 18.102 35.4443 16.7522 35.6182 15.4186C35.7921 14.0851 36.1334 12.8654 36.642 11.7595C36.9113 11.174 37.3304 10.6699 37.8992 10.2471C38.468 9.82423 39.089 9.48271 39.7621 9.22251C40.4677 8.9623 41.1929 8.78341 41.9376 8.68584C42.7136 8.55573 43.4271 8.49068 44.0782 8.49068C44.7943 8.49068 45.4513 8.63705 46.0491 8.92978C46.6455 9.18998 47.1848 9.64534 47.6668 10.2958C48.6283 11.5318 49.3203 12.9467 49.7428 14.5404C50.1979 16.1342 50.4584 17.7442 50.5242 19.3705C50.5952 21.1268 50.5055 22.932 50.255 24.7859C50.0032 26.6074 49.6862 28.4288 49.3042 30.2502C49.0947 30.7056 49.0012 31.2097 49.0236 31.7627C49.0341 32.0229 49.0778 32.2993 49.1548 32.5921C49.2643 32.8848 49.3914 33.21 49.5361 33.5678C50.1838 35.0965 50.9306 36.6577 51.7763 38.2515C52.6533 39.8127 53.6383 41.2276 54.7313 42.4961C55.8242 43.7646 57.0382 44.8054 58.3732 45.6185C59.7082 46.4317 61.2058 46.8382 62.8659 46.8382C64.3308 46.8382 65.6241 46.2202 66.746 44.9843C67.8679 43.7483 68.7813 42.1871 69.4862 40.3006C70.2237 38.4141 70.7593 36.365 71.093 34.1533C71.4253 31.909 71.5507 29.7786 71.4691 27.762C71.3823 25.6153 71.2154 23.5012 70.9684 21.4196C70.7214 19.3379 70.4322 17.4189 70.1007 15.6626C70.0291 15.4999 69.9899 15.3373 69.9833 15.1747C69.9768 15.012 69.9702 14.8494 69.9636 14.6868C69.8886 12.8328 70.8301 11.5643 72.7882 10.8813L74.9558 10.1495C75.5664 9.95433 76.1321 9.85675 76.653 9.85675C78.3782 9.85675 79.4633 10.9301 79.9082 13.0768C80.3479 15.0934 80.7062 17.1099 80.9831 19.1265C81.2925 21.1431 81.488 23.1597 81.5696 25.1763C81.7433 29.4696 81.4019 33.5028 80.5454 37.2757C79.689 41.0487 78.4065 44.35 76.6981 47.1797C75.0209 49.9769 72.9782 52.1887 70.57 53.8149C68.1619 55.4412 65.4767 56.2543 62.5144 56.2543C59.6173 56.2543 56.669 55.3924 53.6696 53.6686C50.6688 51.9122 47.9033 49.1313 45.3731 45.3258C44.8831 44.4801 44.3452 44.0573 43.7593 44.0573C43.2059 44.0573 42.7184 44.4801 42.2969 45.3258C41.2392 47.3424 40.0616 49.2126 38.7641 50.9364C37.4654 52.6278 36.076 54.0914 34.5961 55.3274C33.1161 56.5633 31.5599 57.5228 29.9274 58.2059C28.2948 58.8889 26.6322 59.2304 24.9395 59.2304C22.2052 59.2304 19.766 58.4823 17.6222 56.9862C15.5122 55.5225 13.6422 53.5547 12.0122 51.0828C10.4148 48.6109 9.03083 45.7811 7.8602 42.5936C6.68826 39.3736 5.67448 36.0398 4.81885 32.5921C3.99446 29.1118 3.284 25.6316 2.68747 22.1514C2.12349 18.6712 1.61756 15.4186 1.16966 12.3937L1.14005 11.6619ZM87.725 9.36887C87.7013 8.78341 87.8261 8.24674 88.0993 7.75886C88.3713 7.23845 88.7604 6.79936 89.2667 6.44158C89.7718 6.05127 90.3615 5.74228 91.0359 5.5146C91.7428 5.28692 92.4869 5.17308 93.2682 5.17308C94.7981 5.17308 95.931 5.41703 96.6669 5.90491C97.4028 6.39279 97.8732 7.15714 98.078 8.19795C98.8064 12.5238 99.428 16.6221 99.9426 20.4926C100.489 24.3306 100.946 28.006 101.316 31.5187C101.685 34.9989 101.983 38.3491 102.211 41.5691C102.438 44.7566 102.612 47.8465 102.733 50.8389C102.799 52.4651 102.262 53.6848 101.123 54.498C100.017 55.3111 98.3567 55.7177 96.1431 55.7177C95.134 55.7177 94.3266 55.4737 93.7209 54.9859C93.1491 54.5305 92.8448 53.8475 92.8079 52.9367C92.5816 47.3424 92.1907 42.1058 91.6353 37.2269C91.1111 32.3156 90.5604 27.9572 89.9832 24.1517C89.4061 20.3462 88.8872 17.175 88.4265 14.638C87.997 12.0685 87.7632 10.3121 87.725 9.36887ZM119.871 34.9339C119.95 36.8854 120.495 38.7069 121.508 40.3982C122.551 42.057 123.88 43.5206 125.494 44.7891C127.106 46.0251 128.936 47.0008 130.983 47.7164C133.029 48.3994 135.11 48.741 137.226 48.741C137.877 48.741 138.542 48.6922 139.222 48.5946C139.9 48.4645 140.51 48.2531 141.052 47.9603C141.593 47.6676 142.034 47.2936 142.374 46.8382C142.712 46.3503 142.867 45.7486 142.838 45.0331C142.783 43.667 142.24 42.3172 141.209 40.9836C140.211 39.6501 138.905 38.3328 137.289 37.0318C135.673 35.6982 133.829 34.381 131.759 33.0799C129.686 31.7464 127.582 30.4291 125.446 29.1281C123.31 27.8271 121.207 26.5261 119.136 25.225C117.064 23.8915 115.22 22.5742 113.605 21.2732C111.989 19.9397 110.665 18.6061 109.635 17.2726C108.635 15.9065 108.108 14.5404 108.053 13.1744C108 11.8733 108.277 10.6699 108.883 9.56402C109.521 8.42563 110.375 7.40108 111.445 6.49037C112.514 5.57965 113.767 4.76652 115.203 4.05096C116.639 3.33539 118.145 2.73367 119.72 2.24579C121.295 1.75791 122.876 1.40013 124.462 1.17245C126.079 0.912247 127.62 0.782145 129.085 0.782145C130.159 0.782145 131.332 0.81467 132.604 0.879721C133.908 0.912247 135.118 1.05861 136.235 1.31882C137.384 1.54649 138.342 1.90427 139.111 2.39216C139.879 2.88004 140.282 3.57934 140.319 4.49005C140.33 4.78278 140.297 5.15682 140.218 5.61218C140.137 6.03501 139.889 6.75057 139.474 7.75886C139.057 8.7021 138.549 9.41766 137.95 9.90554C137.382 10.3609 136.627 10.5886 135.683 10.5886C134.348 10.5886 132.926 10.4422 131.417 10.1495C129.939 9.82423 128.451 9.6616 126.954 9.6616C126.14 9.6616 125.312 9.71039 124.469 9.80796C123.658 9.87302 122.915 10.0194 122.241 10.2471C121.565 10.4422 121.024 10.7512 120.618 11.174C120.211 11.5643 120.02 12.0685 120.045 12.6865C120.07 13.3045 120.538 14.0038 121.448 14.7844C122.391 15.565 123.614 16.4269 125.117 17.3701C126.653 18.3134 128.387 19.3542 130.322 20.4926C132.254 21.5984 134.224 22.8019 136.229 24.1029C138.266 25.3714 140.258 26.7375 142.206 28.2011C144.152 29.6322 145.89 31.1609 147.42 32.7872C148.982 34.381 150.239 36.0723 151.19 37.8612C152.174 39.6501 152.705 41.504 152.782 43.423C152.877 45.7649 152.424 47.8302 151.422 49.6191C150.42 51.408 149.097 52.9042 147.453 54.1077C145.809 55.3111 143.973 56.2056 141.946 56.791C139.921 57.409 137.931 57.718 135.978 57.718C133.992 57.718 131.964 57.4741 129.894 56.9862C127.857 56.5308 125.877 55.864 123.953 54.9859C122.031 54.1402 120.216 53.1156 118.507 51.9122C116.829 50.6762 115.358 49.3102 114.093 47.814C112.827 46.2853 111.8 44.6428 111.013 42.8864C110.258 41.13 109.842 39.2923 109.764 37.3733C109.731 36.5602 109.747 35.747 109.812 34.9339C109.908 34.0882 110.09 33.3564 110.358 32.7384C110.625 32.0879 111.01 31.5675 111.516 31.1772C112.019 30.7544 112.678 30.543 113.492 30.543C113.752 30.543 114.047 30.5755 114.375 30.6405C114.702 30.6731 115.277 30.8194 116.101 31.0796C117.057 31.3724 117.906 31.844 118.649 32.4945C119.423 33.1125 119.83 33.9256 119.871 34.9339ZM162.456 14.3941C162.195 14.3941 161.693 14.4591 160.95 14.5892C160.238 14.6868 159.397 14.8169 158.427 14.9795C157.457 15.1421 156.439 15.3373 155.374 15.565C154.308 15.7601 153.306 15.939 152.368 16.1016C151.431 16.2643 150.623 16.4106 149.945 16.5407C149.233 16.6383 148.763 16.6871 148.535 16.6871C146.354 16.6871 145.217 15.5487 145.125 13.2719C145.1 12.6539 145.141 12.0522 145.247 11.4668C145.32 10.8488 145.493 10.2958 145.766 9.80796C146.038 9.28756 146.411 8.84846 146.885 8.49068C147.359 8.1329 147.967 7.88896 148.711 7.75886C152.496 7.1734 156.263 6.55542 160.013 5.90491C163.762 5.2544 167.543 4.57136 171.355 3.8558C172.195 3.69317 172.954 3.54681 173.633 3.41671C174.31 3.25408 175.066 3.04267 175.902 2.78246C176.803 2.52226 177.786 2.27832 178.851 2.05064C179.915 1.79043 180.98 1.56276 182.046 1.3676C183.145 1.17245 184.196 1.00982 185.2 0.879721C186.236 0.749619 187.178 0.684568 188.024 0.684568C189.066 0.684568 189.861 1.02609 190.409 1.70912C190.989 2.35963 191.303 3.28661 191.352 4.49005C191.377 5.10803 191.352 5.70975 191.278 6.29521C191.203 6.84815 191.044 7.35229 190.802 7.80765C190.56 8.263 190.218 8.63705 189.774 8.92978C189.33 9.22251 188.751 9.4014 188.038 9.46645C186.193 9.72665 184.22 10.0519 182.12 10.4422C180.019 10.8 178.196 11.2066 176.652 11.6619C176.009 11.8571 175.534 12.1823 175.226 12.6377C174.918 13.0605 174.728 13.5972 174.657 14.2477C174.584 14.8657 174.545 15.4999 174.538 16.1504C174.563 16.7684 174.588 17.3701 174.611 17.9556C174.667 19.3217 174.771 20.6877 174.924 22.0538C175.109 23.4199 175.278 24.7859 175.431 26.152C175.914 30.8357 176.541 35.4706 177.312 40.0567C178.116 44.6428 178.971 49.2776 179.877 53.9613C179.948 54.1239 179.988 54.2866 179.994 54.4492C180.001 54.6118 180.007 54.7744 180.014 54.9371C180.086 56.726 179.128 57.9945 177.14 58.7425L174.971 59.4256C174.393 59.6207 173.827 59.7183 173.274 59.7183C172.427 59.7183 171.733 59.4418 171.189 58.8889C170.647 58.3685 170.274 57.5879 170.069 56.5471C168.931 50.9527 167.909 45.3908 167.002 39.8615C166.093 34.2996 165.427 28.7053 165.004 23.0784C164.902 22.1676 164.813 21.1756 164.737 20.1023C164.661 19.0289 164.6 17.9231 164.554 16.7847C164.49 15.1909 163.79 14.3941 162.456 14.3941ZM191.362 9.36887C191.338 8.78341 191.463 8.24674 191.736 7.75886C192.008 7.23845 192.397 6.79936 192.903 6.44158C193.409 6.05127 193.998 5.74228 194.673 5.5146C195.38 5.28692 196.124 5.17308 196.905 5.17308C198.435 5.17308 199.568 5.41703 200.304 5.90491C201.04 6.39279 201.51 7.15714 201.715 8.19795C202.443 12.5238 203.065 16.6221 203.579 20.4926C204.125 24.3306 204.583 28.006 204.953 31.5187C205.322 34.9989 205.62 38.3491 205.848 41.5691C206.075 44.7566 206.248 47.8465 206.37 50.8389C206.435 52.4651 205.899 53.6848 204.76 54.498C203.653 55.3111 201.993 55.7177 199.78 55.7177C198.771 55.7177 197.963 55.4737 197.358 54.9859C196.786 54.5305 196.482 53.8475 196.445 52.9367C196.218 47.3424 195.827 42.1058 195.272 37.2269C194.748 32.3156 194.197 27.9572 193.62 24.1517C193.043 20.3462 192.524 17.175 192.063 14.638C191.634 12.0685 191.4 10.3121 191.362 9.36887ZM220.774 19.2729C220.156 19.2729 219.444 19.3867 218.64 19.6144C217.834 19.8095 216.997 20.0535 216.13 20.3462C215.262 20.6064 214.393 20.8504 213.523 21.078C212.684 21.2732 211.923 21.3708 211.24 21.3708C210.524 21.3708 209.949 21.2569 209.517 21.0293C209.116 20.7691 208.81 20.4438 208.599 20.0535C208.388 19.6632 208.257 19.2404 208.206 18.785C208.155 18.3296 208.121 17.8905 208.103 17.4677C208.053 16.2317 208.371 15.2235 209.055 14.4428C209.772 13.6622 210.804 13.0117 212.15 12.4913C213.495 11.9384 215.12 11.483 217.027 11.1252C218.964 10.7349 221.144 10.3121 223.567 9.85675C227.379 9.14119 230.856 8.58826 233.998 8.19795C237.172 7.80765 240.188 7.53118 243.046 7.36855C245.936 7.1734 248.763 7.05956 251.529 7.02704C254.294 6.99451 257.207 6.97825 260.267 6.97825C261.178 6.97825 261.899 7.09209 262.429 7.31977C262.959 7.54744 263.345 7.84017 263.588 8.19795C263.863 8.55573 264.026 8.9623 264.077 9.41766C264.16 9.87302 264.211 10.3284 264.23 10.7837C264.251 11.3041 264.192 11.8733 264.054 12.4913C263.948 13.0768 263.726 13.6297 263.389 14.1501C263.083 14.638 262.644 15.0446 262.071 15.3698C261.531 15.6951 260.854 15.8577 260.04 15.8577H256.134C254.572 15.8577 252.912 15.874 251.156 15.9065C249.398 15.9065 247.657 15.939 245.935 16.0041C244.211 16.0366 242.553 16.1016 240.962 16.1992C239.404 16.2968 238.01 16.4432 236.781 16.6383C235.583 16.8009 234.631 17.0124 233.926 17.2726C233.22 17.5328 232.875 17.858 232.891 18.2483C232.907 18.6386 233.079 19.2891 233.409 20.1999C233.739 21.1106 234.137 22.1026 234.604 23.1759C235.069 24.2168 235.534 25.2576 236 26.2984C236.496 27.3067 236.905 28.1523 237.225 28.8354C237.508 29.3883 237.816 29.7623 238.15 29.9575C238.483 30.1527 238.927 30.2502 239.48 30.2502C240.815 30.2502 242.179 30.1689 243.572 30.0063C244.965 29.8437 246.357 29.6648 247.749 29.4696C249.172 29.2419 250.58 29.0468 251.974 28.8842C253.399 28.7215 254.812 28.6402 256.212 28.6402C256.993 28.6402 257.634 28.7866 258.134 29.0793C258.665 29.3395 259.086 29.681 259.396 30.1039C259.705 30.4942 259.917 30.917 260.033 31.3724C260.182 31.8277 260.263 32.218 260.276 32.5433C260.335 34.0069 259.924 35.1128 259.043 35.8609C258.16 36.5764 256.945 37.1131 255.397 37.4709C253.849 37.8287 252.036 38.0726 249.958 38.2027C247.912 38.3328 245.739 38.5117 243.437 38.7394L242.269 38.837C241.848 38.902 241.529 39.0484 241.31 39.276C241.091 39.5037 240.989 39.7965 241.004 40.1542C241.008 40.2518 241.027 40.3331 241.062 40.3982C241.098 40.4632 241.117 40.5445 241.121 40.6421C241.457 41.7155 241.848 42.9189 242.293 44.2524C242.736 45.5535 243.147 46.8545 243.525 48.1555C243.935 49.4565 244.278 50.6925 244.554 51.8634C244.829 53.0343 244.982 53.9938 245.012 54.7419C245.072 56.2381 244.549 57.3765 243.441 58.1571C242.366 58.9377 240.803 59.328 238.752 59.328C238.003 59.328 237.264 59.1491 236.533 58.7913C235.836 58.4661 235.388 57.8481 235.189 56.9374C234.56 54.2703 233.869 51.6683 233.115 49.1313C232.36 46.5618 231.573 44.0085 230.754 41.4715C230.426 40.5933 229.838 40.1542 228.992 40.1542C228.015 40.1542 226.907 40.1217 225.668 40.0567C224.461 39.9916 223.218 39.8615 221.941 39.6664C220.664 39.4712 219.417 39.2273 218.2 38.9345C217.015 38.6093 215.94 38.1864 214.975 37.666C214.043 37.1456 213.269 36.5276 212.654 35.8121C212.072 35.0965 211.761 34.2509 211.721 33.2751C211.696 32.6571 211.819 32.0554 212.088 31.4699C212.356 30.8519 212.709 30.3153 213.146 29.8599C213.582 29.372 214.054 28.9817 214.563 28.689C215.105 28.3963 215.62 28.2499 216.108 28.2499C216.694 28.2499 217.335 28.3963 218.03 28.689C218.726 28.9817 219.471 29.307 220.267 29.6648C221.063 30.0225 221.906 30.3478 222.797 30.6405C223.72 30.9333 224.702 31.0796 225.744 31.0796C226.265 31.0796 226.514 30.8032 226.492 30.2502C226.471 29.7298 226.345 29.0468 226.116 28.2011C225.919 27.3555 225.655 26.4773 225.326 25.5666C224.995 24.6233 224.616 23.7126 224.19 22.8344C223.795 21.9237 223.373 21.1594 222.925 20.5414C222.649 20.1511 222.36 19.8421 222.057 19.6144C221.788 19.3867 221.36 19.2729 220.774 19.2729ZM252.322 13.1744C251.149 12.3287 250.538 11.3204 250.491 10.1495C250.473 9.69413 250.536 9.25503 250.682 8.8322C250.826 8.37684 251.101 7.92149 251.505 7.46613L252.856 5.85612C253.661 4.8153 254.632 4.2949 255.772 4.2949C256.162 4.2949 256.589 4.37621 257.051 4.53884C257.48 4.66894 257.929 4.91288 258.399 5.27066C263.095 8.68584 267.616 12.2311 271.964 15.9065C276.343 19.5493 280.59 23.5337 284.704 27.8596C285.346 28.4451 285.895 28.7378 286.35 28.7378C287.229 28.7378 287.743 28.1523 287.891 26.9814L291.495 9.85675C291.905 7.93775 292.859 6.97825 294.357 6.97825C294.682 6.97825 295.026 7.02704 295.388 7.12461C295.783 7.22219 296.181 7.40108 296.582 7.66128L298.328 8.58826C299.959 9.46645 300.804 10.6536 300.865 12.1498C300.885 12.6377 300.809 13.1744 300.637 13.7598C299.695 17.8255 298.745 22.1189 297.789 26.6399C296.864 31.1284 295.911 35.747 294.932 40.4958C293.951 45.2119 292.94 49.9932 291.899 54.8395C290.858 59.6858 289.782 64.4833 288.672 69.232C288.232 71.2161 287.149 72.2081 285.424 72.2081C284.935 72.2081 284.394 72.1105 283.8 71.9154L282.169 71.4275C281.15 71.1673 280.4 70.7444 279.921 70.159C279.441 69.5735 279.184 68.858 279.15 68.0123C279.142 67.8172 279.133 67.5895 279.123 67.3293C279.145 67.0691 279.199 66.8089 279.286 66.5487C280.171 62.6781 281.042 58.8401 281.897 55.0346C282.752 51.2292 283.574 47.4074 284.363 43.5694C284.418 43.3417 284.459 43.1466 284.485 42.984C284.511 42.8213 284.52 42.6424 284.512 42.4473C284.497 42.057 284.384 41.6829 284.174 41.3252C283.997 40.9674 283.755 40.6096 283.447 40.2518C278.652 35.1778 273.658 30.4129 268.464 25.9569C263.304 21.5009 257.923 17.24 252.322 13.1744Z" fill="black"/>
<path d="M312.314 17.3701C312.054 17.3701 311.697 17.3864 311.242 17.4189C310.819 17.4189 310.364 17.4352 309.877 17.4677C309.422 17.5002 308.984 17.5328 308.562 17.5653C308.139 17.5653 307.83 17.5653 307.635 17.5653C306.723 17.5653 306.003 17.4515 305.472 17.2238C304.974 16.9636 304.71 16.4757 304.681 15.7601C304.672 15.5324 304.705 15.1421 304.78 14.5892C304.855 14.0363 304.979 13.4833 305.152 12.9304C305.324 12.345 305.564 11.8408 305.872 11.418C306.181 10.9951 306.579 10.7837 307.067 10.7837C307.653 10.7837 308.306 10.8163 309.024 10.8813C309.776 10.9464 310.495 11.0114 311.181 11.0765C311.9 11.1415 312.553 11.2066 313.142 11.2716C313.73 11.3367 314.187 11.3692 314.513 11.3692C315.066 11.3692 315.455 11.3204 315.679 11.2228C315.934 11.0927 316.054 10.8488 316.04 10.491C316.029 10.2308 315.949 9.85675 315.799 9.36887C315.682 8.88099 315.46 8.21422 315.132 7.36855C314.736 6.42532 314.462 5.67723 314.309 5.1243C314.188 4.53884 314.117 3.9859 314.096 3.4655C314.071 2.84751 314.311 2.35963 314.818 2.00185C315.993 1.28629 316.951 0.830933 317.692 0.63578C318.464 0.408102 319.078 0.294263 319.534 0.294263C319.957 0.294263 320.29 0.489416 320.534 0.879721C320.81 1.27003 321.025 1.75791 321.179 2.34337C321.366 2.92883 321.505 3.56307 321.598 4.24611C321.723 4.92914 321.846 5.56339 321.968 6.14885C322.122 6.73431 322.288 7.22219 322.466 7.61249C322.678 8.0028 322.946 8.19795 323.271 8.19795C323.467 8.19795 323.769 8.03533 324.179 7.71007C324.589 7.38482 325.278 6.70178 326.245 5.66097C326.933 4.97793 327.513 4.425 327.984 4.00217C328.456 3.57934 328.919 3.36792 329.375 3.36792C329.961 3.36792 330.471 3.51428 330.906 3.80701C331.373 4.06722 331.761 4.40874 332.071 4.83157C332.412 5.22187 332.673 5.6447 332.854 6.10006C333.034 6.52289 333.13 6.88067 333.142 7.1734C333.158 7.56371 332.883 8.01906 332.318 8.53947C331.786 9.05988 331.189 9.58029 330.526 10.1007C329.895 10.5886 329.296 11.0765 328.73 11.5643C328.195 12.0197 327.933 12.3937 327.945 12.6865C327.957 12.9792 328.227 13.2069 328.754 13.3695C329.314 13.5321 330.232 13.6948 331.508 13.8574C332.916 14.0525 333.999 14.2802 334.758 14.5404C335.549 14.7681 335.957 15.2072 335.984 15.8577C336.006 16.4106 335.944 16.8985 335.799 17.3213C335.652 17.7117 335.503 18.0532 335.352 18.3459C334.808 19.3867 334.283 20.086 333.777 20.4438C333.27 20.8016 332.838 20.9805 332.48 20.9805C332.024 20.9805 331.501 20.9154 330.91 20.7853C330.317 20.6227 329.725 20.4601 329.132 20.2974C328.538 20.1023 327.978 19.9397 327.452 19.8095C326.925 19.6469 326.514 19.5656 326.222 19.5656C325.863 19.5656 325.623 19.6632 325.501 19.8583C325.41 20.021 325.374 20.33 325.392 20.7853C325.404 21.078 325.489 21.5822 325.648 22.2977C325.808 23.0133 325.985 23.7777 326.181 24.5908C326.375 25.3714 326.552 26.1358 326.713 26.8838C326.873 27.6319 326.961 28.1849 326.975 28.5426C326.995 29.0305 326.8 29.4371 326.39 29.7623C325.98 30.0876 325.487 30.3641 324.91 30.5917C324.332 30.7869 323.719 30.9333 323.072 31.0308C322.458 31.1284 321.939 31.1772 321.516 31.1772C320.702 31.1772 320.164 30.7544 319.902 29.9087C319.638 29.0305 319.484 28.0222 319.438 26.8838C319.397 25.8756 319.295 24.9648 319.132 24.1517C319 23.306 318.706 22.8832 318.25 22.8832C317.925 22.8832 317.576 23.1109 317.204 23.5662C316.831 24.0216 316.429 24.5257 315.995 25.0787C315.593 25.5991 315.174 26.087 314.736 26.5423C314.298 26.9652 313.867 27.1766 313.444 27.1766C312.825 27.1766 312.335 27.1278 311.973 27.0302C311.609 26.9001 311.327 26.77 311.127 26.6399C310.299 26.2821 309.746 25.9081 309.47 25.5178C309.194 25.1275 309.049 24.7697 309.036 24.4444C309.02 24.0541 309.245 23.5662 309.709 22.9808C310.174 22.3953 310.859 21.631 311.765 20.6877C312.483 19.9397 312.997 19.3542 313.305 18.9314C313.612 18.476 313.761 18.1182 313.75 17.858C313.744 17.6954 313.641 17.5816 313.443 17.5165C313.244 17.4189 312.868 17.3701 312.314 17.3701Z" fill="#B8E830"/>
</svg>
