<svg width="134" height="134" viewBox="0 0 134 134" fill="none" xmlns="http://www.w3.org/2000/svg">
<rect width="134" height="134" rx="12" fill="black"/>
<path d="M18.0146 76.2722C17.6498 75.2965 17.9535 74.5053 18.9256 73.8986L19.8406 73.348C19.9359 73.2776 20.0217 73.2282 20.0979 73.1997C20.1893 73.1655 20.2732 73.1341 20.3494 73.1056C21.2794 72.7579 22.0277 73.0863 22.5944 74.0908C22.8492 74.5863 23.1705 75.2133 23.5584 75.9719C23.9463 76.7305 24.3855 77.5567 24.8761 78.4506C25.382 79.3388 25.9202 80.2671 26.4907 81.2353C27.0765 82.1979 27.6795 83.1367 28.2996 84.0517C28.914 84.9514 29.5418 85.7941 30.183 86.5795C30.8242 87.365 31.4636 88.0295 32.1013 88.573C32.7389 89.1166 33.3557 89.5115 33.9517 89.7578C34.5573 89.9832 35.1269 89.9962 35.6605 89.7967C36.0416 89.6542 36.38 89.3973 36.6756 89.0261C36.9865 88.6493 37.2641 88.2066 37.5084 87.6982C37.7471 87.1746 37.9534 86.6109 38.1273 86.0072C38.3012 85.4035 38.4418 84.8036 38.5491 84.2075C38.6564 83.6113 38.7417 83.0494 38.8051 82.5218C38.878 81.9733 38.9204 81.5056 38.9322 81.1189C38.9153 80.7951 38.8613 80.5112 38.7701 80.2672C38.7245 80.1453 38.6713 80.0262 38.6105 79.9099C38.5496 79.7936 38.4783 79.6726 38.3965 79.5468C37.7534 78.7099 37.179 77.8473 36.6731 76.9591C36.1673 76.0709 35.7092 75.078 35.2988 73.9803C35.0594 73.34 34.8762 72.6874 34.7492 72.0224C34.6222 71.3575 34.5914 70.7174 34.6568 70.1021C34.6914 69.7764 34.8088 69.4632 35.0091 69.1624C35.2095 68.8616 35.4469 68.5904 35.7215 68.3487C36.0112 68.1013 36.3229 67.8892 36.6565 67.7124C36.9995 67.5146 37.3235 67.3587 37.6285 67.2447C37.9638 67.1193 38.2944 67.0739 38.6201 67.1085C38.9401 67.1279 39.2639 67.2501 39.5913 67.4752C40.2348 67.895 40.78 68.447 41.227 69.1313C41.6892 69.8099 42.0629 70.5304 42.3479 71.2926C42.6557 72.1159 42.8958 72.9905 43.0682 73.9165C43.235 74.8272 43.3712 75.7494 43.477 76.6829C43.4501 76.9362 43.4851 77.1925 43.582 77.4517C43.6276 77.5736 43.6913 77.6975 43.7731 77.8233C43.8701 77.9434 43.9804 78.0759 44.1041 78.2208C44.6464 78.8347 45.2402 79.4468 45.8854 80.057C46.5401 80.6463 47.2226 81.147 47.9327 81.5592C48.6429 81.9714 49.3741 82.254 50.1264 82.4072C50.8787 82.5603 51.6436 82.4915 52.4211 82.2008C53.1072 81.9443 53.6163 81.4238 53.9485 80.6393C54.2808 79.8548 54.4645 78.952 54.4998 77.931C54.5504 76.9042 54.4809 75.8355 54.2915 74.7247C54.0964 73.5987 53.8221 72.563 53.4687 71.6178C53.0925 70.6116 52.6839 69.6349 52.2429 68.6877C51.8019 67.7405 51.3665 66.8781 50.9367 66.1005C50.8777 66.0356 50.834 65.9651 50.8055 65.8889C50.777 65.8127 50.7485 65.7364 50.72 65.6602C50.3951 64.7912 50.6378 64.0228 51.448 63.355L52.3488 62.6272C52.6043 62.4274 52.854 62.2819 53.0979 62.1907C53.9059 61.8886 54.5819 62.2093 55.1258 63.1528C55.6469 64.0353 56.1299 64.9321 56.5747 65.8431C57.0348 66.7484 57.4416 67.6737 57.795 68.6189C58.5474 70.6313 59.0179 72.61 59.2065 74.5552C59.3951 76.5003 59.3105 78.2957 58.9526 79.9412C58.6043 81.5658 57.9934 82.9759 57.1197 84.1713C56.2461 85.3668 55.1156 86.2239 53.7283 86.7426C52.3714 87.2499 50.8559 87.356 49.1817 87.061C47.5019 86.7508 45.772 85.9118 43.9922 84.5442C43.6306 84.2277 43.3126 84.1207 43.0381 84.2233C42.779 84.3202 42.6168 84.6067 42.5515 85.0829C42.3713 86.2276 42.1122 87.3237 41.7739 88.3711C41.43 89.4032 41.0081 90.3429 40.5082 91.1901C40.0083 92.0373 39.4294 92.7664 38.7716 93.3772C38.1138 93.9881 37.3885 94.4417 36.5957 94.7381C35.3151 95.2169 34.0559 95.2881 32.818 94.9516C31.601 94.6246 30.4177 94.0158 29.2679 93.1251C28.1335 92.2286 27.043 91.1246 25.9966 89.8129C24.9444 88.486 23.9485 87.0773 23.0089 85.5867C22.0789 84.0751 21.2022 82.5436 20.3789 80.9922C19.5708 79.435 18.8254 77.9761 18.1429 76.6153L18.0146 76.2722ZM62.6552 61.0414C62.5332 61.087 62.3083 61.2059 61.9805 61.398C61.6622 61.5691 61.2886 61.7783 60.8597 62.0255C60.4309 62.2727 59.9848 62.5438 59.5216 62.8386C59.0527 63.1181 58.6115 63.3787 58.1979 63.6202C57.7843 63.8618 57.4288 64.0729 57.1314 64.2535C56.8131 64.4247 56.6006 64.5302 56.4939 64.5701C55.4725 64.952 54.7622 64.6094 54.3632 63.5422C54.2549 63.2525 54.18 62.9591 54.1384 62.6619C54.0758 62.3551 54.0704 62.0617 54.1221 61.7818C54.1681 61.4865 54.2741 61.2123 54.4401 60.9591C54.606 60.7059 54.853 60.4833 55.1808 60.2912C56.8619 59.3499 58.5297 58.3962 60.1841 57.4301C61.8386 56.464 63.5026 55.4769 65.1761 54.4689C65.544 54.2445 65.8766 54.0419 66.174 53.8613C66.4656 53.6653 66.7869 53.4323 67.1376 53.1621C67.5189 52.8806 67.9411 52.5924 68.4043 52.2976C68.8618 51.9875 69.325 51.6927 69.7939 51.4131C70.2781 51.1278 70.745 50.8664 71.1948 50.6287C71.6599 50.3853 72.0906 50.1895 72.487 50.0413C72.9748 49.8589 73.4006 49.8822 73.7642 50.1111C74.1374 50.3191 74.4294 50.7052 74.6403 51.2693C74.7486 51.5589 74.8312 51.8495 74.888 52.141C74.9392 52.4173 74.9437 52.6849 74.9015 52.944C74.8594 53.203 74.7572 53.441 74.5951 53.658C74.433 53.8751 74.1899 54.0615 73.8659 54.2174C73.0425 54.6643 72.1696 55.1644 71.247 55.7178C70.3188 56.256 69.5287 56.7687 68.8767 57.2557C68.606 57.4612 68.4343 57.6991 68.3616 57.9696C68.2833 58.2247 68.2782 58.5133 68.3465 58.8353C68.4091 59.1421 68.4897 59.4508 68.5885 59.7614C68.6968 60.0511 68.8022 60.3331 68.9048 60.6075C69.1442 61.2478 69.4065 61.8796 69.6916 62.5028C69.992 63.1203 70.2848 63.7406 70.5699 64.3638C71.5279 66.5079 72.546 68.6034 73.6241 70.6504C74.7174 72.6916 75.8422 74.7473 76.9984 76.8172C77.0574 76.882 77.1012 76.9525 77.1297 77.0288C77.1582 77.105 77.1867 77.1812 77.2152 77.2574C77.5287 78.0959 77.2784 78.8672 76.4642 79.5712L75.5549 80.2761C75.3147 80.4702 75.065 80.6157 74.8058 80.7126C74.4094 80.8608 74.0408 80.8509 73.7 80.6829C73.3649 80.5302 73.068 80.2242 72.8094 79.7648C71.4021 77.3022 70.0539 74.8349 68.7647 72.3629C67.4699 69.8757 66.2837 67.3304 65.2061 64.7272C65.016 64.3117 64.8193 63.8553 64.616 63.3579C64.4126 62.8605 64.2112 62.345 64.0117 61.8114C63.7324 61.0644 63.2802 60.8077 62.6552 61.0414ZM80.2989 57.0512C80.0092 57.1595 79.6938 57.3382 79.3526 57.5875C79.0056 57.8214 78.652 58.084 78.2917 58.3751C77.9257 58.6509 77.5568 58.9192 77.1851 59.1798C76.8229 59.4195 76.4817 59.5992 76.1616 59.7189C75.8262 59.8443 75.5394 59.8907 75.3013 59.858C75.0728 59.8045 74.8786 59.7033 74.7187 59.5546C74.5588 59.4058 74.4314 59.2276 74.3363 59.0199C74.2413 58.8121 74.1567 58.6092 74.0826 58.411C73.866 57.8316 73.857 57.2963 74.0556 56.8051C74.2695 56.3081 74.6509 55.8179 75.2 55.3346C75.7434 54.836 76.4335 54.3347 77.2703 53.8307C78.1166 53.3058 79.0716 52.7229 80.1352 52.0819C81.8087 51.0739 83.3507 50.202 84.7611 49.4662C86.1867 48.7246 87.5561 48.0649 88.8692 47.4871C90.1918 46.8883 91.4982 46.3391 92.7884 45.8393C94.0785 45.3396 95.4401 44.8218 96.8732 44.286C97.3001 44.1264 97.6554 44.0544 97.9392 44.0699C98.223 44.0854 98.4497 44.1571 98.6191 44.2849C98.8037 44.407 98.9436 44.5719 99.0386 44.7796C99.1489 44.9817 99.244 45.1894 99.3238 45.4028C99.415 45.6468 99.4766 45.9278 99.5087 46.246C99.5503 46.5432 99.5329 46.8451 99.4564 47.1517C99.3894 47.4374 99.2472 47.7078 99.0298 47.9628C98.8276 48.2122 98.536 48.4081 98.1549 48.5506L96.3254 49.2346C95.5937 49.5082 94.819 49.8065 94.0014 50.1296C93.1782 50.4374 92.3683 50.7576 91.5717 51.0901C90.7694 51.4075 90.0033 51.7287 89.2733 52.0537C88.5587 52.373 87.9288 52.6868 87.3836 52.9948C86.8481 53.282 86.4354 53.5492 86.1456 53.7966C85.8558 54.0439 85.7451 54.2591 85.8135 54.442C85.8819 54.625 86.0645 54.9042 86.3613 55.2798C86.6581 55.6554 86.9997 56.0576 87.3859 56.4866C87.7665 56.9004 88.1471 57.3141 88.5277 57.7279C88.9178 58.1207 89.2414 58.4515 89.4983 58.7204C89.7171 58.9339 89.9199 59.058 90.1065 59.0924C90.2932 59.1269 90.5161 59.0957 90.7753 58.9988C91.4003 58.7651 92.0264 58.4876 92.6534 58.1663C93.2805 57.8449 93.9047 57.516 94.526 57.1794C95.1569 56.8219 95.7859 56.4825 96.4129 56.1611C97.0552 55.8341 97.7042 55.5481 98.3597 55.303C98.7256 55.1662 99.0485 55.1236 99.3285 55.1753C99.618 55.2061 99.8685 55.2949 100.08 55.4418C100.285 55.5734 100.451 55.7374 100.576 55.9338C100.717 56.1244 100.816 56.2959 100.873 56.4484C101.13 57.1344 101.11 57.7326 100.814 58.2428C100.513 58.7378 100.028 59.206 99.3584 59.6473C98.6894 60.0886 97.8784 60.5221 96.9255 60.9479C95.9878 61.368 94.9977 61.8337 93.9552 62.3451L93.4235 62.5961C93.2367 62.7006 93.1099 62.8262 93.0431 62.9729C92.9762 63.1195 92.9742 63.2766 93.0369 63.4443C93.054 63.4901 93.0759 63.5253 93.1025 63.5501C93.1292 63.5749 93.151 63.6102 93.1681 63.6559C93.4934 64.1077 93.8644 64.6119 94.281 65.1686C94.692 65.71 95.0877 66.2571 95.4681 66.8099C95.8638 67.357 96.2176 67.8851 96.5296 68.394C96.8415 68.9029 97.063 69.3327 97.1941 69.6834C97.4563 70.3846 97.389 71.018 96.9922 71.5834C96.6107 72.1431 95.9397 72.6025 94.9792 72.9616C94.6286 73.0927 94.2542 73.1371 93.8561 73.0948C93.479 73.062 93.1725 72.8464 92.9366 72.4481C92.2253 71.2892 91.4949 70.1721 90.7454 69.097C89.9902 68.0066 89.2226 66.9296 88.4426 65.8658C88.1515 65.5055 87.8077 65.3994 87.4114 65.5476C86.954 65.7186 86.43 65.8972 85.8392 66.0833C85.2638 66.2637 84.6616 66.4193 84.0329 66.5502C83.4041 66.681 82.782 66.7832 82.1667 66.8569C81.5608 66.9097 80.9913 66.8967 80.4579 66.8181C79.9399 66.7338 79.4809 66.5752 79.0811 66.3424C78.6965 66.1039 78.4188 65.756 78.2478 65.2986C78.1395 65.009 78.1026 64.7013 78.1372 64.3756C78.1661 64.0346 78.2474 63.7175 78.381 63.4243C78.509 63.1158 78.6693 62.8474 78.8619 62.619C79.0698 62.3848 79.288 62.225 79.5167 62.1395C79.7911 62.0369 80.1141 61.9944 80.4855 62.0119C80.857 62.0294 81.257 62.0536 81.6856 62.0845C82.1142 62.1154 82.5599 62.1225 83.0228 62.1058C83.501 62.0834 83.984 61.981 84.4719 61.7986C84.7158 61.7074 84.7893 61.5323 84.6924 61.2731C84.6012 61.0292 84.4358 60.7261 84.1961 60.3639C83.9717 59.9961 83.711 59.6243 83.4142 59.2488C83.1117 58.8579 82.7921 58.4909 82.4552 58.1477C82.1279 57.7835 81.811 57.4937 81.5045 57.2781C81.3142 57.1408 81.1304 57.0444 80.9533 56.989C80.7915 56.9278 80.5733 56.9486 80.2989 57.0512Z" fill="white"/>
<path d="M101.968 47.9329C101.846 47.9785 101.681 48.0488 101.474 48.1439C101.275 48.218 101.065 48.3054 100.842 48.4061C100.634 48.5012 100.434 48.5934 100.241 48.6827C100.043 48.7568 99.8985 48.811 99.807 48.8452C99.3801 49.0048 99.0248 49.0768 98.7409 49.0613C98.4667 49.0248 98.2668 48.8389 98.1414 48.5035C98.1015 48.3968 98.056 48.2053 98.0048 47.929C97.9537 47.6527 97.9254 47.3679 97.9199 47.0745C97.9088 46.7659 97.9424 46.484 98.0208 46.2288C98.0991 45.9737 98.2526 45.8033 98.4813 45.7178C98.7557 45.6152 99.0663 45.5165 99.4131 45.4215C99.7752 45.3209 100.122 45.226 100.454 45.1368C100.8 45.0419 101.117 44.9584 101.402 44.8863C101.688 44.8142 101.907 44.7496 102.06 44.6926C102.319 44.5957 102.493 44.5045 102.583 44.4188C102.682 44.3122 102.7 44.1751 102.638 44.0074C102.592 43.8854 102.496 43.7215 102.35 43.5156C102.218 43.3041 102.01 43.0257 101.725 42.6807C101.392 42.3012 101.146 41.9933 100.988 41.757C100.84 41.4997 100.72 41.249 100.629 41.0051C100.521 40.7155 100.557 40.4412 100.738 40.1823C101.177 39.636 101.555 39.2515 101.871 39.029C102.197 38.7855 102.467 38.6238 102.68 38.544C102.878 38.4699 103.065 38.5044 103.24 38.6474C103.431 38.7848 103.608 38.9792 103.771 39.2309C103.95 39.4768 104.114 39.7541 104.265 40.0629C104.43 40.3659 104.587 40.6461 104.735 40.9034C104.899 41.155 105.053 41.3581 105.198 41.5125C105.357 41.6612 105.514 41.7071 105.666 41.6501C105.758 41.6159 105.874 41.4855 106.015 41.259C106.156 41.0324 106.372 40.5869 106.662 39.9223C106.878 39.4768 107.063 39.1122 107.218 38.8285C107.372 38.5448 107.556 38.363 107.77 38.2832C108.044 38.1806 108.306 38.1609 108.555 38.224C108.814 38.2662 109.05 38.3607 109.261 38.5076C109.482 38.6335 109.67 38.789 109.826 38.9739C109.977 39.1436 110.077 39.297 110.129 39.4342C110.197 39.6172 110.14 39.8819 109.957 40.2284C109.789 40.5693 109.59 40.9215 109.361 41.2851C109.142 41.6278 108.938 41.9648 108.749 42.2961C108.569 42.6064 108.505 42.8302 108.557 42.9674C108.608 43.1046 108.77 43.1657 109.042 43.1507C109.33 43.13 109.785 43.0467 110.408 42.9006C111.098 42.747 111.641 42.6656 112.037 42.6565C112.443 42.6264 112.703 42.7638 112.817 43.0687C112.914 43.3279 112.961 43.5708 112.959 43.7975C112.951 44.0089 112.935 44.1975 112.91 44.3632C112.818 44.9537 112.681 45.3783 112.5 45.6372C112.319 45.8961 112.144 46.0569 111.977 46.1196C111.763 46.1994 111.508 46.2601 111.211 46.3018C110.908 46.3281 110.605 46.3545 110.302 46.3809C109.993 46.392 109.706 46.4127 109.439 46.4429C109.167 46.4579 108.962 46.491 108.824 46.5423C108.657 46.605 108.56 46.6935 108.533 46.8078C108.516 46.9011 108.547 47.0545 108.627 47.2679C108.678 47.4051 108.797 47.63 108.983 47.9426C109.17 48.2552 109.372 48.5878 109.591 48.9405C109.804 49.2778 110.006 49.6105 110.198 49.9383C110.391 50.2661 110.518 50.5139 110.581 50.6816C110.666 50.9103 110.638 51.1379 110.497 51.3645C110.356 51.591 110.168 51.8089 109.934 52.0183C109.693 52.2123 109.429 52.3892 109.142 52.549C108.869 52.703 108.634 52.8171 108.435 52.8912C108.054 53.0337 107.736 52.9267 107.481 52.5702C107.221 52.1985 106.991 51.7458 106.791 51.2122C106.614 50.7396 106.424 50.3242 106.221 49.9658C106.027 49.5866 105.823 49.4368 105.61 49.5166C105.457 49.5736 105.33 49.743 105.226 50.0249C105.123 50.3067 105.013 50.6171 104.897 50.9561C104.79 51.2741 104.67 51.5797 104.536 51.873C104.397 52.151 104.228 52.327 104.03 52.4011C103.74 52.5094 103.503 52.572 103.318 52.589C103.127 52.5907 102.975 52.5782 102.861 52.5514C102.417 52.5262 102.1 52.4449 101.91 52.3076C101.719 52.1702 101.595 52.0253 101.538 51.8729C101.47 51.6899 101.499 51.4185 101.625 51.0586C101.751 50.6987 101.953 50.215 102.229 49.6076C102.449 49.1259 102.598 48.7574 102.676 48.5022C102.749 48.2318 102.762 48.0356 102.717 47.9136C102.688 47.8374 102.623 47.8011 102.52 47.8048C102.411 47.7933 102.227 47.836 101.968 47.9329Z" fill="#B8E830"/>
</svg>
