<svg width="168" height="37" viewBox="0 0 168 37" fill="none" xmlns="http://www.w3.org/2000/svg">
<path d="M0.319336 6.34473C0.319336 5.30306 0.880859 4.66829 2.00391 4.44043L3.05371 4.24512C3.16764 4.21257 3.2653 4.19629 3.34668 4.19629C3.44434 4.19629 3.53385 4.19629 3.61523 4.19629C4.60807 4.19629 5.19401 4.76595 5.37305 5.90527C5.43815 6.45866 5.51953 7.15853 5.61719 8.00488C5.71484 8.85124 5.83691 9.77897 5.9834 10.7881C6.14616 11.7972 6.3252 12.8551 6.52051 13.9619C6.7321 15.0687 6.9681 16.1592 7.22852 17.2334C7.48893 18.2913 7.7819 19.3005 8.10742 20.2607C8.43294 21.221 8.79915 22.0674 9.20605 22.7998C9.61296 23.5322 10.0524 24.1182 10.5244 24.5576C11.0127 24.9808 11.5417 25.1924 12.1113 25.1924C12.5182 25.1924 12.9251 25.0703 13.332 24.8262C13.7552 24.582 14.1702 24.2646 14.5771 23.874C14.984 23.4671 15.3747 23.0114 15.749 22.5068C16.1234 22.0023 16.4652 21.4896 16.7744 20.9688C17.0837 20.4479 17.3604 19.9515 17.6045 19.4795C17.8649 18.9912 18.0684 18.568 18.2148 18.21C18.3125 17.9007 18.3613 17.6159 18.3613 17.3555C18.3613 17.2253 18.3532 17.0951 18.3369 16.9648C18.3206 16.8346 18.2962 16.6963 18.2637 16.5498C17.9544 15.5407 17.7184 14.5316 17.5557 13.5225C17.3929 12.5133 17.3115 11.4229 17.3115 10.251C17.3115 9.56738 17.3685 8.89193 17.4824 8.22461C17.5964 7.55729 17.7917 6.94694 18.0684 6.39355C18.2148 6.10059 18.4346 5.84831 18.7275 5.63672C19.0205 5.42513 19.3379 5.25423 19.6797 5.12402C20.0378 4.99382 20.404 4.9043 20.7783 4.85547C21.1689 4.79036 21.527 4.75781 21.8525 4.75781C22.2106 4.75781 22.5361 4.83105 22.8291 4.97754C23.1221 5.10775 23.3825 5.33561 23.6104 5.66113C24.0661 6.27962 24.3835 6.98763 24.5625 7.78516C24.7578 8.58268 24.8555 9.38835 24.8555 10.2021C24.8555 11.0811 24.7741 11.9844 24.6113 12.9121C24.4486 13.8236 24.2533 14.735 24.0254 15.6465C23.9115 15.8743 23.8545 16.1266 23.8545 16.4033C23.8545 16.5335 23.8708 16.6719 23.9033 16.8184C23.9521 16.9648 24.0091 17.1276 24.0742 17.3066C24.3672 18.0716 24.709 18.8529 25.0996 19.6504C25.5065 20.4316 25.9704 21.1396 26.4912 21.7744C27.012 22.4092 27.598 22.93 28.249 23.3369C28.9001 23.7438 29.6406 23.9473 30.4707 23.9473C31.2031 23.9473 31.8623 23.638 32.4482 23.0195C33.0342 22.401 33.5225 21.6198 33.9131 20.6758C34.32 19.7318 34.6292 18.7064 34.8408 17.5996C35.0524 16.4766 35.1582 15.4105 35.1582 14.4014C35.1582 13.3271 35.1175 12.2692 35.0361 11.2275C34.9548 10.1859 34.849 9.22559 34.7188 8.34668C34.6862 8.2653 34.6699 8.18392 34.6699 8.10254C34.6699 8.02116 34.6699 7.93978 34.6699 7.8584C34.6699 6.93066 35.1663 6.2959 36.1592 5.9541L37.2578 5.58789C37.5671 5.49023 37.8519 5.44141 38.1123 5.44141C38.9749 5.44141 39.4958 5.97852 39.6748 7.05273C39.8538 8.06185 39.9922 9.07096 40.0898 10.0801C40.2038 11.0892 40.2607 12.0983 40.2607 13.1074C40.2607 15.2559 40.0085 17.2741 39.5039 19.1621C38.9993 21.0501 38.2913 22.7021 37.3799 24.1182C36.4847 25.5179 35.4186 26.6247 34.1816 27.4385C32.9447 28.2523 31.5856 28.6592 30.1045 28.6592C28.6559 28.6592 27.1992 28.2279 25.7344 27.3652C24.2695 26.4863 22.943 25.0947 21.7549 23.1904C21.527 22.7673 21.2666 22.5557 20.9736 22.5557C20.6969 22.5557 20.4447 22.7673 20.2168 23.1904C19.6471 24.1995 19.0205 25.1354 18.3369 25.998C17.6533 26.8444 16.929 27.5768 16.1641 28.1953C15.3991 28.8138 14.6016 29.2939 13.7715 29.6357C12.9414 29.9775 12.1032 30.1484 11.2568 30.1484C9.88965 30.1484 8.68522 29.7741 7.64355 29.0254C6.61816 28.293 5.72298 27.3083 4.95801 26.0713C4.20931 24.8343 3.57454 23.4183 3.05371 21.8232C2.53288 20.2119 2.09342 18.5436 1.73535 16.8184C1.39355 15.0768 1.10872 13.3353 0.880859 11.5938C0.669271 9.85221 0.482096 8.22461 0.319336 6.71094V6.34473ZM43.6582 5.19727C43.6582 4.9043 43.7314 4.63574 43.8779 4.3916C44.0244 4.13118 44.2279 3.91146 44.4883 3.73242C44.7487 3.53711 45.0498 3.38249 45.3916 3.26855C45.7497 3.15462 46.124 3.09766 46.5146 3.09766C47.2796 3.09766 47.8411 3.21973 48.1992 3.46387C48.5573 3.70801 48.777 4.09049 48.8584 4.61133C49.1351 6.77604 49.363 8.82682 49.542 10.7637C49.7373 12.6842 49.8919 14.5234 50.0059 16.2812C50.1198 18.0228 50.2012 19.6992 50.25 21.3105C50.2988 22.9056 50.3232 24.4518 50.3232 25.9492C50.3232 26.763 50.0303 27.3734 49.4443 27.7803C48.8747 28.1872 48.0365 28.3906 46.9297 28.3906C46.4251 28.3906 46.0264 28.2686 45.7334 28.0244C45.4567 27.7965 45.3184 27.4548 45.3184 26.999C45.3184 24.1995 45.2288 21.5791 45.0498 19.1377C44.887 16.68 44.6999 14.499 44.4883 12.5947C44.2767 10.6904 44.0814 9.10352 43.9023 7.83398C43.7396 6.54818 43.6582 5.66927 43.6582 5.19727ZM59.2139 17.9902C59.2139 18.9668 59.4499 19.8783 59.9219 20.7246C60.4102 21.5547 61.0449 22.2871 61.8262 22.9219C62.6074 23.5404 63.5026 24.0286 64.5117 24.3867C65.5208 24.7285 66.5544 24.8994 67.6123 24.8994C67.9378 24.8994 68.2715 24.875 68.6133 24.8262C68.9551 24.7611 69.2643 24.6553 69.541 24.5088C69.8177 24.3623 70.0456 24.1751 70.2246 23.9473C70.4036 23.7031 70.4932 23.402 70.4932 23.0439C70.4932 22.3604 70.249 21.6849 69.7607 21.0176C69.2887 20.3503 68.6621 19.6911 67.8809 19.04C67.0996 18.3727 66.2044 17.7135 65.1953 17.0625C64.1862 16.3952 63.1608 15.736 62.1191 15.085C61.0775 14.4339 60.0521 13.7829 59.043 13.1318C58.0339 12.4645 57.1387 11.8053 56.3574 11.1543C55.5762 10.487 54.9414 9.81966 54.4531 9.15234C53.9811 8.46875 53.7451 7.78516 53.7451 7.10156C53.7451 6.45052 53.9079 5.84831 54.2334 5.29492C54.5752 4.72526 55.0228 4.21257 55.5762 3.75684C56.1296 3.30111 56.7725 2.89421 57.5049 2.53613C58.2373 2.17806 59.0023 1.87695 59.7998 1.63281C60.5973 1.38867 61.3949 1.20964 62.1924 1.0957C63.0062 0.965495 63.7793 0.900391 64.5117 0.900391C65.0488 0.900391 65.6348 0.916667 66.2695 0.949219C66.9206 0.965495 67.5228 1.03874 68.0762 1.16895C68.6458 1.28288 69.1178 1.46191 69.4922 1.70605C69.8665 1.9502 70.0537 2.30013 70.0537 2.75586C70.0537 2.90234 70.0293 3.08952 69.9805 3.31738C69.9316 3.52897 69.7933 3.88704 69.5654 4.3916C69.3376 4.86361 69.069 5.22168 68.7598 5.46582C68.4668 5.69368 68.0843 5.80762 67.6123 5.80762C66.945 5.80762 66.237 5.73438 65.4883 5.58789C64.7559 5.42513 64.0153 5.34375 63.2666 5.34375C62.8597 5.34375 62.4447 5.36816 62.0215 5.41699C61.6146 5.44954 61.2402 5.52279 60.8984 5.63672C60.5566 5.73438 60.2799 5.889 60.0684 6.10059C59.8568 6.2959 59.751 6.54818 59.751 6.85742C59.751 7.16667 59.9707 7.5166 60.4102 7.90723C60.8659 8.29785 61.46 8.72917 62.1924 9.20117C62.9411 9.67318 63.7874 10.194 64.7314 10.7637C65.6755 11.3171 66.6357 11.9193 67.6123 12.5703C68.6051 13.2051 69.5736 13.8887 70.5176 14.6211C71.4616 15.3372 72.2998 16.1022 73.0322 16.916C73.7809 17.7135 74.375 18.5599 74.8145 19.4551C75.2702 20.3503 75.498 21.278 75.498 22.2383C75.498 23.4102 75.2295 24.4437 74.6924 25.3389C74.1553 26.234 73.4635 26.9827 72.6172 27.585C71.7708 28.1872 70.835 28.6348 69.8096 28.9277C68.7842 29.237 67.7832 29.3916 66.8066 29.3916C65.8138 29.3916 64.8047 29.2695 63.7793 29.0254C62.7702 28.7975 61.7936 28.4639 60.8496 28.0244C59.9056 27.6012 59.0186 27.0885 58.1885 26.4863C57.3747 25.8678 56.6667 25.1842 56.0645 24.4355C55.4622 23.6706 54.9821 22.8486 54.624 21.9697C54.2822 21.0908 54.1113 20.1712 54.1113 19.2109C54.1113 18.804 54.1357 18.3971 54.1846 17.9902C54.2497 17.5671 54.3555 17.2008 54.502 16.8916C54.6484 16.5661 54.8519 16.3057 55.1123 16.1104C55.3727 15.8988 55.7064 15.793 56.1133 15.793C56.2435 15.793 56.39 15.8092 56.5527 15.8418C56.7155 15.8581 57.0003 15.9313 57.4072 16.0615C57.8792 16.208 58.2943 16.444 58.6523 16.7695C59.0267 17.0788 59.2139 17.4857 59.2139 17.9902ZM80.9219 7.71191C80.7917 7.71191 80.5394 7.74447 80.165 7.80957C79.807 7.8584 79.3838 7.9235 78.8955 8.00488C78.4072 8.08626 77.8945 8.18392 77.3574 8.29785C76.8203 8.39551 76.3158 8.48503 75.8438 8.56641C75.3717 8.64779 74.9648 8.72103 74.623 8.78613C74.265 8.83496 74.029 8.85938 73.915 8.85938C72.8245 8.85938 72.2793 8.28971 72.2793 7.15039C72.2793 6.84115 72.3118 6.54004 72.377 6.24707C72.4258 5.93783 72.5234 5.66113 72.6699 5.41699C72.8164 5.15658 73.0117 4.93685 73.2559 4.75781C73.5 4.57878 73.8092 4.45671 74.1836 4.3916C76.0879 4.09863 77.984 3.78939 79.8721 3.46387C81.7601 3.13835 83.6644 2.79655 85.585 2.43848C86.0081 2.3571 86.3906 2.28385 86.7324 2.21875C87.0742 2.13737 87.4567 2.03158 87.8799 1.90137C88.3356 1.77116 88.832 1.64909 89.3691 1.53516C89.9062 1.40495 90.4434 1.29102 90.9805 1.19336C91.5339 1.0957 92.0628 1.01432 92.5674 0.949219C93.0882 0.884115 93.5602 0.851562 93.9834 0.851562C94.5042 0.851562 94.8949 1.02246 95.1553 1.36426C95.432 1.68978 95.5703 2.15365 95.5703 2.75586C95.5703 3.0651 95.5459 3.36621 95.4971 3.65918C95.4482 3.93587 95.3587 4.18815 95.2285 4.41602C95.0983 4.64388 94.9193 4.83105 94.6914 4.97754C94.4635 5.12402 94.1706 5.21354 93.8125 5.24609C92.8848 5.3763 91.8919 5.53906 90.834 5.73438C89.776 5.91341 88.8564 6.11686 88.0752 6.34473C87.7497 6.44238 87.5055 6.60514 87.3428 6.83301C87.18 7.0446 87.0742 7.31315 87.0254 7.63867C86.9766 7.94792 86.944 8.2653 86.9277 8.59082C86.9277 8.90007 86.9277 9.20117 86.9277 9.49414C86.9277 10.1777 86.9521 10.8613 87.001 11.5449C87.0661 12.2285 87.123 12.9121 87.1719 13.5957C87.3184 15.9395 87.5381 18.2588 87.8311 20.5537C88.1403 22.8486 88.474 25.168 88.832 27.5117C88.8646 27.5931 88.8809 27.6745 88.8809 27.7559C88.8809 27.8372 88.8809 27.9186 88.8809 28C88.8809 28.8952 88.3763 29.5299 87.3672 29.9043L86.2686 30.2461C85.9756 30.3438 85.6908 30.3926 85.4141 30.3926C84.9909 30.3926 84.6491 30.2542 84.3887 29.9775C84.1283 29.7171 83.9574 29.3265 83.876 28.8057C83.4202 26.0062 83.0215 23.223 82.6797 20.4561C82.3379 17.6729 82.1182 14.8734 82.0205 12.0576C81.988 11.6019 81.9635 11.1055 81.9473 10.5684C81.931 10.0312 81.9229 9.47786 81.9229 8.9082C81.9229 8.11068 81.5892 7.71191 80.9219 7.71191ZM95.4766 5.19727C95.4766 4.9043 95.5498 4.63574 95.6963 4.3916C95.8428 4.13118 96.0462 3.91146 96.3066 3.73242C96.5671 3.53711 96.8682 3.38249 97.21 3.26855C97.568 3.15462 97.9424 3.09766 98.333 3.09766C99.098 3.09766 99.6595 3.21973 100.018 3.46387C100.376 3.70801 100.595 4.09049 100.677 4.61133C100.953 6.77604 101.181 8.82682 101.36 10.7637C101.556 12.6842 101.71 14.5234 101.824 16.2812C101.938 18.0228 102.02 19.6992 102.068 21.3105C102.117 22.9056 102.142 24.4518 102.142 25.9492C102.142 26.763 101.849 27.3734 101.263 27.7803C100.693 28.1872 99.8548 28.3906 98.748 28.3906C98.2435 28.3906 97.8447 28.2686 97.5518 28.0244C97.2751 27.7965 97.1367 27.4548 97.1367 26.999C97.1367 24.1995 97.0472 21.5791 96.8682 19.1377C96.7054 16.68 96.5182 14.499 96.3066 12.5947C96.0951 10.6904 95.8997 9.10352 95.7207 7.83398C95.5579 6.54818 95.4766 5.66927 95.4766 5.19727ZM109.982 10.1533C109.673 10.1533 109.315 10.2103 108.908 10.3242C108.501 10.4219 108.078 10.5439 107.639 10.6904C107.199 10.8206 106.76 10.9427 106.32 11.0566C105.897 11.1543 105.515 11.2031 105.173 11.2031C104.815 11.2031 104.53 11.1462 104.318 11.0322C104.123 10.902 103.977 10.7393 103.879 10.5439C103.781 10.3486 103.724 10.137 103.708 9.90918C103.692 9.68132 103.684 9.46159 103.684 9.25C103.684 8.63151 103.863 8.12695 104.221 7.73633C104.595 7.3457 105.124 7.02018 105.808 6.75977C106.491 6.48307 107.313 6.25521 108.273 6.07617C109.25 5.88086 110.349 5.66927 111.569 5.44141C113.49 5.08333 115.24 4.80664 116.818 4.61133C118.413 4.41602 119.927 4.27767 121.359 4.19629C122.808 4.09863 124.224 4.04167 125.607 4.02539C126.991 4.00911 128.448 4.00098 129.978 4.00098C130.433 4.00098 130.791 4.05794 131.052 4.17188C131.312 4.28581 131.499 4.43229 131.613 4.61133C131.743 4.79036 131.817 4.99382 131.833 5.22168C131.866 5.44954 131.882 5.67741 131.882 5.90527C131.882 6.16569 131.841 6.45052 131.76 6.75977C131.695 7.05273 131.573 7.32943 131.394 7.58984C131.231 7.83398 131.003 8.03743 130.71 8.2002C130.433 8.36296 130.091 8.44434 129.685 8.44434H127.731C126.95 8.44434 126.12 8.45247 125.241 8.46875C124.362 8.46875 123.492 8.48503 122.629 8.51758C121.766 8.53385 120.936 8.56641 120.139 8.61523C119.357 8.66406 118.658 8.7373 118.039 8.83496C117.437 8.91634 116.957 9.02214 116.599 9.15234C116.241 9.28255 116.062 9.44531 116.062 9.64062C116.062 9.83594 116.135 10.1615 116.281 10.6172C116.428 11.0729 116.607 11.5693 116.818 12.1064C117.03 12.6273 117.242 13.1481 117.453 13.6689C117.681 14.1735 117.868 14.5967 118.015 14.9385C118.145 15.2152 118.291 15.4023 118.454 15.5C118.617 15.5977 118.837 15.6465 119.113 15.6465C119.781 15.6465 120.464 15.6058 121.164 15.5244C121.864 15.443 122.564 15.3535 123.264 15.2559C123.98 15.1419 124.688 15.0443 125.388 14.9629C126.104 14.8815 126.812 14.8408 127.512 14.8408C127.902 14.8408 128.22 14.9141 128.464 15.0605C128.724 15.1908 128.928 15.3617 129.074 15.5732C129.221 15.7686 129.318 15.9801 129.367 16.208C129.432 16.4359 129.465 16.6312 129.465 16.7939C129.465 17.5264 129.237 18.0798 128.781 18.4541C128.326 18.8122 127.707 19.0807 126.926 19.2598C126.145 19.4388 125.233 19.5609 124.191 19.626C123.166 19.6911 122.076 19.7806 120.92 19.8945L120.334 19.9434C120.122 19.9759 119.96 20.0492 119.846 20.1631C119.732 20.277 119.675 20.4235 119.675 20.6025C119.675 20.6514 119.683 20.6921 119.699 20.7246C119.715 20.7572 119.724 20.7979 119.724 20.8467C119.87 21.3838 120.041 21.986 120.236 22.6533C120.432 23.3044 120.611 23.9554 120.773 24.6064C120.952 25.2575 121.099 25.876 121.213 26.4619C121.327 27.0479 121.384 27.528 121.384 27.9023C121.384 28.651 121.099 29.2207 120.529 29.6113C119.976 30.002 119.187 30.1973 118.161 30.1973C117.787 30.1973 117.421 30.1077 117.062 29.9287C116.721 29.766 116.509 29.4567 116.428 29.001C116.167 27.6663 115.874 26.3643 115.549 25.0947C115.223 23.8089 114.882 22.5312 114.523 21.2617C114.377 20.8223 114.092 20.6025 113.669 20.6025C113.181 20.6025 112.627 20.5863 112.009 20.5537C111.407 20.5212 110.788 20.4561 110.153 20.3584C109.519 20.2607 108.9 20.1387 108.298 19.9922C107.712 19.8294 107.183 19.6178 106.711 19.3574C106.255 19.097 105.881 18.7878 105.588 18.4297C105.311 18.0716 105.173 17.6484 105.173 17.1602C105.173 16.8509 105.246 16.5498 105.393 16.2568C105.539 15.9476 105.726 15.679 105.954 15.4512C106.182 15.207 106.426 15.0117 106.687 14.8652C106.963 14.7188 107.224 14.6455 107.468 14.6455C107.761 14.6455 108.078 14.7188 108.42 14.8652C108.762 15.0117 109.128 15.1745 109.519 15.3535C109.909 15.5326 110.324 15.6953 110.764 15.8418C111.219 15.9883 111.708 16.0615 112.229 16.0615C112.489 16.0615 112.619 15.9232 112.619 15.6465C112.619 15.3861 112.57 15.0443 112.473 14.6211C112.391 14.1979 112.277 13.7585 112.131 13.3027C111.984 12.8307 111.813 12.375 111.618 11.9355C111.439 11.4798 111.244 11.0973 111.032 10.7881C110.902 10.5928 110.764 10.4382 110.617 10.3242C110.487 10.2103 110.275 10.1533 109.982 10.1533ZM125.88 7.10156C125.31 6.67839 125.025 6.17383 125.025 5.58789C125.025 5.36003 125.066 5.1403 125.147 4.92871C125.229 4.70085 125.375 4.47298 125.587 4.24512L126.295 3.43945C126.718 2.91862 127.215 2.6582 127.784 2.6582C127.979 2.6582 128.191 2.69889 128.419 2.78027C128.631 2.84538 128.85 2.96745 129.078 3.14648C131.357 4.85547 133.546 6.62956 135.646 8.46875C137.761 10.2917 139.804 12.2855 141.773 14.4502C142.083 14.7432 142.351 14.8896 142.579 14.8896C143.019 14.8896 143.287 14.5967 143.385 14.0107L145.533 5.44141C145.777 4.48112 146.274 4.00098 147.022 4.00098C147.185 4.00098 147.356 4.02539 147.535 4.07422C147.73 4.12305 147.926 4.21257 148.121 4.34277L148.976 4.80664C149.773 5.24609 150.172 5.84017 150.172 6.58887C150.172 6.83301 150.123 7.10156 150.025 7.39453C149.472 9.42904 148.91 11.5775 148.341 13.8398C147.787 16.0859 147.218 18.3971 146.632 20.7734C146.046 23.1335 145.444 25.526 144.825 27.9512C144.207 30.3763 143.572 32.777 142.921 35.1533C142.66 36.1462 142.099 36.6426 141.236 36.6426C140.992 36.6426 140.724 36.5938 140.431 36.4961L139.625 36.252C139.12 36.1217 138.754 35.9102 138.526 35.6172C138.299 35.3242 138.185 34.9661 138.185 34.543C138.185 34.4453 138.185 34.3314 138.185 34.2012C138.201 34.071 138.233 33.9408 138.282 33.8105C138.803 31.8737 139.316 29.9531 139.82 28.0488C140.325 26.1445 140.813 24.2321 141.285 22.3115C141.318 22.1976 141.342 22.0999 141.358 22.0186C141.375 21.9372 141.383 21.8477 141.383 21.75C141.383 21.5547 141.334 21.3675 141.236 21.1885C141.155 21.0094 141.041 20.8304 140.895 20.6514C138.6 18.1123 136.199 15.7279 133.692 13.498C131.202 11.2682 128.598 9.13607 125.88 7.10156Z" fill="#FCFBFC"/>
<path d="M155.791 9.20117C155.661 9.20117 155.482 9.20931 155.254 9.22559C155.042 9.22559 154.814 9.23372 154.57 9.25C154.342 9.26628 154.123 9.28255 153.911 9.29883C153.7 9.29883 153.545 9.29883 153.447 9.29883C152.992 9.29883 152.633 9.24186 152.373 9.12793C152.129 8.99772 152.007 8.75358 152.007 8.39551C152.007 8.28158 152.031 8.08626 152.08 7.80957C152.129 7.53288 152.202 7.25618 152.3 6.97949C152.397 6.68652 152.528 6.43424 152.69 6.22266C152.853 6.01107 153.057 5.90527 153.301 5.90527C153.594 5.90527 153.919 5.92155 154.277 5.9541C154.652 5.98665 155.01 6.01921 155.352 6.05176C155.71 6.08431 156.035 6.11686 156.328 6.14941C156.621 6.18197 156.849 6.19824 157.012 6.19824C157.288 6.19824 157.484 6.17383 157.598 6.125C157.728 6.0599 157.793 5.93783 157.793 5.75879C157.793 5.62858 157.76 5.44141 157.695 5.19727C157.646 4.95312 157.549 4.61947 157.402 4.19629C157.223 3.72428 157.101 3.34993 157.036 3.07324C156.987 2.78027 156.963 2.50358 156.963 2.24316C156.963 1.93392 157.093 1.68978 157.354 1.51074C157.956 1.15267 158.444 0.924805 158.818 0.827148C159.209 0.713216 159.518 0.65625 159.746 0.65625C159.958 0.65625 160.12 0.753906 160.234 0.949219C160.365 1.14453 160.462 1.38867 160.527 1.68164C160.609 1.97461 160.666 2.29199 160.698 2.63379C160.747 2.97559 160.796 3.29297 160.845 3.58594C160.91 3.87891 160.983 4.12305 161.064 4.31836C161.162 4.51367 161.292 4.61133 161.455 4.61133C161.553 4.61133 161.707 4.52995 161.919 4.36719C162.131 4.20443 162.489 3.86263 162.993 3.3418C163.351 3 163.652 2.72331 163.896 2.51172C164.141 2.30013 164.377 2.19434 164.604 2.19434C164.897 2.19434 165.15 2.26758 165.361 2.41406C165.589 2.54427 165.776 2.71517 165.923 2.92676C166.086 3.12207 166.208 3.33366 166.289 3.56152C166.37 3.77311 166.411 3.95215 166.411 4.09863C166.411 4.29395 166.265 4.52181 165.972 4.78223C165.695 5.04264 165.386 5.30306 165.044 5.56348C164.718 5.80762 164.409 6.05176 164.116 6.2959C163.84 6.52376 163.701 6.71094 163.701 6.85742C163.701 7.00391 163.831 7.11784 164.092 7.19922C164.368 7.2806 164.824 7.36198 165.459 7.44336C166.159 7.54102 166.696 7.65495 167.07 7.78516C167.461 7.89909 167.656 8.11882 167.656 8.44434C167.656 8.72103 167.616 8.96517 167.534 9.17676C167.453 9.37207 167.371 9.54297 167.29 9.68945C166.997 10.2103 166.72 10.5602 166.46 10.7393C166.2 10.9183 165.98 11.0078 165.801 11.0078C165.573 11.0078 165.312 10.9753 165.02 10.9102C164.727 10.8288 164.434 10.7474 164.141 10.666C163.848 10.5684 163.571 10.487 163.311 10.4219C163.05 10.3405 162.847 10.2998 162.7 10.2998C162.521 10.2998 162.399 10.3486 162.334 10.4463C162.285 10.5277 162.261 10.6823 162.261 10.9102C162.261 11.0566 162.293 11.3089 162.358 11.667C162.424 12.0251 162.497 12.4076 162.578 12.8145C162.66 13.2051 162.733 13.5876 162.798 13.9619C162.863 14.3363 162.896 14.613 162.896 14.792C162.896 15.0361 162.79 15.2396 162.578 15.4023C162.367 15.5651 162.114 15.7035 161.821 15.8174C161.528 15.915 161.219 15.9883 160.894 16.0371C160.584 16.0859 160.324 16.1104 160.112 16.1104C159.705 16.1104 159.445 15.8988 159.331 15.4756C159.217 15.0361 159.16 14.5316 159.16 13.9619C159.16 13.4574 159.128 13.0016 159.062 12.5947C159.014 12.1715 158.875 11.96 158.647 11.96C158.485 11.96 158.306 12.0739 158.11 12.3018C157.915 12.5296 157.703 12.7819 157.476 13.0586C157.264 13.319 157.044 13.5632 156.816 13.791C156.589 14.0026 156.369 14.1084 156.157 14.1084C155.848 14.1084 155.604 14.084 155.425 14.0352C155.246 13.9701 155.107 13.9049 155.01 13.8398C154.603 13.6608 154.334 13.4736 154.204 13.2783C154.074 13.083 154.009 12.904 154.009 12.7412C154.009 12.5459 154.131 12.3018 154.375 12.0088C154.619 11.7158 154.977 11.3333 155.449 10.8613C155.824 10.487 156.092 10.194 156.255 9.98242C156.418 9.75456 156.499 9.57552 156.499 9.44531C156.499 9.36393 156.45 9.30697 156.353 9.27441C156.255 9.22559 156.068 9.20117 155.791 9.20117Z" fill="#B8E830"/>
</svg>
