<svg width="105" height="64" viewBox="0 0 105 64" fill="none" xmlns="http://www.w3.org/2000/svg">
<path d="M2.01465 41.2722C1.64985 40.2965 1.95351 39.5053 2.92564 38.8986L3.84056 38.348C3.93588 38.2776 4.02165 38.2282 4.09788 38.1997C4.18935 38.1655 4.2732 38.1341 4.34943 38.1056C5.27939 37.7579 6.02772 38.0863 6.59442 39.0908C6.8492 39.5863 7.17053 40.2133 7.5584 40.9719C7.94627 41.7305 8.38551 42.5567 8.87611 43.4506C9.38197 44.3388 9.92016 45.2671 10.4907 46.2353C11.0765 47.1979 11.6795 48.1367 12.2996 49.0517C12.914 49.9514 13.5418 50.7941 14.183 51.5795C14.8242 52.365 15.4636 53.0295 16.1013 53.573C16.7389 54.1166 17.3557 54.5115 17.9517 54.7578C18.5573 54.9832 19.1269 54.9962 19.6605 54.7967C20.0416 54.6542 20.38 54.3973 20.6756 54.0261C20.9865 53.6493 21.2641 53.2066 21.5084 52.6982C21.7471 52.1746 21.9534 51.6109 22.1273 51.0072C22.3012 50.4035 22.4418 49.8036 22.5491 49.2075C22.6564 48.6113 22.7417 48.0494 22.8051 47.5218C22.878 46.9733 22.9204 46.5056 22.9322 46.1189C22.9153 45.7951 22.8613 45.5112 22.7701 45.2672C22.7245 45.1453 22.6713 45.0262 22.6105 44.9099C22.5496 44.7936 22.4783 44.6726 22.3965 44.5468C21.7534 43.7099 21.179 42.8473 20.6731 41.9591C20.1673 41.0709 19.7092 40.078 19.2988 38.9803C19.0594 38.34 18.8762 37.6874 18.7492 37.0224C18.6222 36.3575 18.5914 35.7174 18.6568 35.1021C18.6914 34.7764 18.8088 34.4632 19.0091 34.1624C19.2095 33.8616 19.4469 33.5904 19.7215 33.3487C20.0112 33.1013 20.3229 32.8892 20.6565 32.7124C20.9995 32.5146 21.3235 32.3587 21.6285 32.2447C21.9638 32.1193 22.2944 32.0739 22.6201 32.1085C22.9401 32.1279 23.2639 32.2501 23.5913 32.4752C24.2348 32.895 24.78 33.447 25.227 34.1313C25.6892 34.8099 26.0629 35.5304 26.3479 36.2926C26.6557 37.1159 26.8958 37.9905 27.0682 38.9165C27.235 39.8272 27.3712 40.7494 27.477 41.6829C27.4501 41.9362 27.4851 42.1925 27.582 42.4517C27.6276 42.5736 27.6913 42.6975 27.7731 42.8233C27.8701 42.9434 27.9804 43.0759 28.1041 43.2208C28.6464 43.8347 29.2402 44.4468 29.8854 45.057C30.5401 45.6463 31.2226 46.147 31.9327 46.5592C32.6429 46.9714 33.3741 47.254 34.1264 47.4072C34.8787 47.5603 35.6436 47.4915 36.4211 47.2008C37.1072 46.9443 37.6163 46.4238 37.9485 45.6393C38.2808 44.8548 38.4645 43.952 38.4998 42.931C38.5504 41.9042 38.4809 40.8355 38.2915 39.7247C38.0964 38.5987 37.8221 37.563 37.4687 36.6178C37.0925 35.6116 36.6839 34.6349 36.2429 33.6877C35.8019 32.7405 35.3665 31.8781 34.9367 31.1005C34.8777 31.0356 34.834 30.9651 34.8055 30.8889C34.777 30.8127 34.7485 30.7364 34.72 30.6602C34.3951 29.7912 34.6378 29.0228 35.448 28.355L36.3488 27.6272C36.6043 27.4274 36.854 27.2819 37.0979 27.1907C37.9059 26.8886 38.5819 27.2093 39.1258 28.1528C39.6469 29.0353 40.1299 29.9321 40.5747 30.8431C41.0348 31.7484 41.4416 32.6737 41.795 33.6189C42.5474 35.6313 43.0179 37.61 43.2065 39.5552C43.3951 41.5003 43.3105 43.2957 42.9526 44.9412C42.6043 46.5658 41.9934 47.9759 41.1197 49.1713C40.2461 50.3668 39.1156 51.2239 37.7283 51.7426C36.3714 52.2499 34.8559 52.356 33.1817 52.061C31.5019 51.7508 29.772 50.9118 27.9922 49.5442C27.6306 49.2277 27.3126 49.1207 27.0381 49.2233C26.779 49.3202 26.6168 49.6067 26.5515 50.0829C26.3713 51.2276 26.1122 52.3237 25.7739 53.3711C25.43 54.4032 25.0081 55.3429 24.5082 56.1901C24.0083 57.0373 23.4294 57.7664 22.7716 58.3772C22.1138 58.9881 21.3885 59.4417 20.5957 59.7381C19.3151 60.2169 18.0559 60.2881 16.818 59.9516C15.601 59.6246 14.4177 59.0158 13.2679 58.1251C12.1335 57.2286 11.043 56.1246 9.99655 54.8129C8.9444 53.486 7.94853 52.0773 7.00893 50.5867C6.07888 49.0751 5.20219 47.5436 4.37886 45.9922C3.57077 44.435 2.82545 42.9761 2.1429 41.6153L2.01465 41.2722ZM46.6552 26.0414C46.5332 26.087 46.3083 26.2059 45.9805 26.398C45.6622 26.5691 45.2886 26.7783 44.8597 27.0255C44.4309 27.2727 43.9848 27.5438 43.5216 27.8386C43.0527 28.1181 42.6115 28.3787 42.1979 28.6202C41.7843 28.8618 41.4288 29.0729 41.1314 29.2535C40.8131 29.4247 40.6006 29.5302 40.4939 29.5701C39.4725 29.952 38.7622 29.6094 38.3632 28.5422C38.2549 28.2525 38.18 27.9591 38.1384 27.6619C38.0758 27.3551 38.0704 27.0617 38.1221 26.7818C38.1681 26.4865 38.2741 26.2123 38.4401 25.9591C38.606 25.7059 38.853 25.4833 39.1808 25.2912C40.8619 24.3499 42.5297 23.3962 44.1841 22.4301C45.8386 21.464 47.5026 20.4769 49.1761 19.4689C49.544 19.2445 49.8766 19.0419 50.174 18.8613C50.4656 18.6653 50.7869 18.4323 51.1376 18.1621C51.5189 17.8806 51.9411 17.5924 52.4043 17.2976C52.8618 16.9875 53.325 16.6927 53.7939 16.4131C54.2781 16.1278 54.745 15.8664 55.1948 15.6287C55.6599 15.3853 56.0906 15.1895 56.487 15.0413C56.9748 14.8589 57.4006 14.8822 57.7642 15.1111C58.1374 15.3191 58.4294 15.7052 58.6403 16.2693C58.7486 16.5589 58.8312 16.8495 58.888 17.141C58.9392 17.4173 58.9437 17.6849 58.9015 17.944C58.8594 18.203 58.7572 18.441 58.5951 18.658C58.433 18.8751 58.1899 19.0615 57.8659 19.2174C57.0425 19.6643 56.1696 20.1644 55.247 20.7178C54.3188 21.256 53.5287 21.7687 52.8767 22.2557C52.606 22.4612 52.4343 22.6991 52.3616 22.9696C52.2833 23.2247 52.2782 23.5133 52.3465 23.8353C52.4091 24.1421 52.4897 24.4508 52.5885 24.7614C52.6968 25.0511 52.8022 25.3331 52.9048 25.6075C53.1442 26.2478 53.4065 26.8796 53.6916 27.5028C53.992 28.1203 54.2848 28.7406 54.5699 29.3638C55.5279 31.5079 56.546 33.6034 57.6241 35.6504C58.7174 37.6916 59.8422 39.7473 60.9984 41.8172C61.0574 41.882 61.1012 41.9525 61.1297 42.0288C61.1582 42.105 61.1867 42.1812 61.2152 42.2574C61.5287 43.0959 61.2784 43.8672 60.4642 44.5712L59.5549 45.2761C59.3147 45.4702 59.065 45.6157 58.8058 45.7126C58.4094 45.8608 58.0408 45.8509 57.7 45.6829C57.3649 45.5302 57.068 45.2242 56.8094 44.7648C55.4021 42.3022 54.0539 39.8349 52.7647 37.3629C51.4699 34.8757 50.2837 32.3304 49.2061 29.7272C49.016 29.3117 48.8193 28.8553 48.616 28.3579C48.4126 27.8605 48.2112 27.345 48.0117 26.8114C47.7324 26.0644 47.2802 25.8077 46.6552 26.0414ZM64.2989 22.0512C64.0092 22.1595 63.6938 22.3382 63.3526 22.5875C63.0056 22.8214 62.652 23.084 62.2917 23.3751C61.9257 23.6509 61.5568 23.9192 61.1851 24.1798C60.8229 24.4195 60.4817 24.5992 60.1616 24.7189C59.8262 24.8443 59.5394 24.8907 59.3013 24.858C59.0728 24.8045 58.8786 24.7033 58.7187 24.5546C58.5588 24.4058 58.4314 24.2276 58.3363 24.0199C58.2413 23.8121 58.1567 23.6092 58.0826 23.411C57.866 22.8316 57.857 22.2963 58.0556 21.8051C58.2695 21.3081 58.6509 20.8179 59.2 20.3346C59.7434 19.836 60.4335 19.3347 61.2703 18.8307C62.1166 18.3058 63.0716 17.7229 64.1352 17.0819C65.8087 16.0739 67.3507 15.202 68.7611 14.4662C70.1867 13.7246 71.5561 13.0649 72.8692 12.4871C74.1918 11.8883 75.4982 11.3391 76.7884 10.8393C78.0785 10.3396 79.4401 9.82182 80.8732 9.28602C81.3001 9.12642 81.6554 9.05438 81.9392 9.0699C82.223 9.08542 82.4497 9.15708 82.6191 9.28487C82.8037 9.40697 82.9436 9.57189 83.0386 9.77962C83.1489 9.98166 83.244 10.1894 83.3238 10.4028C83.415 10.6468 83.4766 10.9278 83.5087 11.246C83.5503 11.5432 83.5329 11.8451 83.4564 12.1517C83.3894 12.4374 83.2472 12.7078 83.0298 12.9628C82.8276 13.2122 82.536 13.4081 82.1549 13.5506L80.3254 14.2346C79.5937 14.5082 78.819 14.8065 78.0014 15.1296C77.1782 15.4374 76.3683 15.7576 75.5717 16.0901C74.7694 16.4075 74.0033 16.7287 73.2733 17.0537C72.5587 17.373 71.9288 17.6868 71.3836 17.9948C70.8481 18.282 70.4354 18.5492 70.1456 18.7966C69.8558 19.0439 69.7451 19.2591 69.8135 19.442C69.8819 19.625 70.0645 19.9042 70.3613 20.2798C70.6581 20.6554 70.9997 21.0576 71.3859 21.4866C71.7665 21.9004 72.1471 22.3141 72.5277 22.7279C72.9178 23.1207 73.2414 23.4515 73.4983 23.7204C73.7171 23.9339 73.9199 24.058 74.1065 24.0924C74.2932 24.1269 74.5161 24.0957 74.7753 23.9988C75.4003 23.7651 76.0264 23.4876 76.6534 23.1663C77.2805 22.8449 77.9047 22.516 78.526 22.1794C79.1569 21.8219 79.7859 21.4825 80.4129 21.1611C81.0552 20.8341 81.7042 20.5481 82.3597 20.303C82.7256 20.1662 83.0485 20.1236 83.3285 20.1753C83.618 20.2061 83.8685 20.2949 84.0798 20.4418C84.2854 20.5734 84.4509 20.7374 84.5765 20.9338C84.7173 21.1244 84.8161 21.2959 84.8731 21.4484C85.1296 22.1344 85.11 22.7326 84.8142 23.2428C84.5128 23.7378 84.0275 24.206 83.3584 24.6473C82.6894 25.0886 81.8784 25.5221 80.9255 25.9479C79.9878 26.368 78.9977 26.8337 77.9552 27.3451L77.4235 27.5961C77.2367 27.7006 77.1099 27.8262 77.0431 27.9729C76.9762 28.1195 76.9742 28.2766 77.0369 28.4443C77.054 28.4901 77.0759 28.5253 77.1025 28.5501C77.1292 28.5749 77.151 28.6102 77.1681 28.6559C77.4934 29.1077 77.8644 29.6119 78.281 30.1686C78.692 30.71 79.0877 31.2571 79.4681 31.8099C79.8638 32.357 80.2176 32.8851 80.5296 33.394C80.8415 33.9029 81.063 34.3327 81.1941 34.6834C81.4563 35.3846 81.389 36.018 80.9922 36.5834C80.6107 37.1431 79.9397 37.6025 78.9792 37.9616C78.6286 38.0927 78.2542 38.1371 77.8561 38.0948C77.479 38.062 77.1725 37.8464 76.9366 37.4481C76.2253 36.2892 75.4949 35.1721 74.7454 34.097C73.9902 33.0066 73.2226 31.9296 72.4426 30.8658C72.1515 30.5055 71.8077 30.3994 71.4114 30.5476C70.954 30.7186 70.43 30.8972 69.8392 31.0833C69.2638 31.2637 68.6616 31.4193 68.0329 31.5502C67.4041 31.681 66.782 31.7832 66.1667 31.8569C65.5608 31.9097 64.9913 31.8967 64.4579 31.8181C63.9399 31.7338 63.4809 31.5752 63.0811 31.3424C62.6965 31.1039 62.4188 30.756 62.2478 30.2986C62.1395 30.009 62.1026 29.7013 62.1372 29.3756C62.1661 29.0346 62.2474 28.7175 62.381 28.4243C62.509 28.1158 62.6693 27.8474 62.8619 27.619C63.0698 27.3848 63.288 27.225 63.5167 27.1395C63.7911 27.0369 64.1141 26.9944 64.4855 27.0119C64.857 27.0294 65.257 27.0536 65.6856 27.0845C66.1142 27.1154 66.5599 27.1225 67.0228 27.1058C67.501 27.0834 67.984 26.981 68.4719 26.7986C68.7158 26.7074 68.7893 26.5323 68.6924 26.2731C68.6012 26.0292 68.4358 25.7261 68.1961 25.3639C67.9717 24.9961 67.711 24.6243 67.4142 24.2488C67.1117 23.8579 66.7921 23.4909 66.4552 23.1477C66.1279 22.7835 65.811 22.4937 65.5045 22.2781C65.3142 22.1408 65.1304 22.0444 64.9533 21.989C64.7915 21.9278 64.5733 21.9486 64.2989 22.0512Z" fill="white"/>
<path d="M85.9681 12.9329C85.8461 12.9785 85.6813 13.0488 85.4736 13.1439C85.2754 13.218 85.0648 13.3054 84.8418 13.4061C84.6341 13.5012 84.434 13.5934 84.2415 13.6827C84.0433 13.7568 83.8985 13.811 83.807 13.8452C83.3801 14.0048 83.0248 14.0768 82.7409 14.0613C82.4667 14.0248 82.2668 13.8389 82.1414 13.5035C82.1015 13.3968 82.056 13.2053 82.0048 12.929C81.9537 12.6527 81.9254 12.3679 81.9199 12.0745C81.9088 11.7659 81.9424 11.484 82.0208 11.2288C82.0991 10.9737 82.2526 10.8033 82.4813 10.7178C82.7557 10.6152 83.0663 10.5165 83.4131 10.4215C83.7752 10.3209 84.122 10.226 84.4535 10.1368C84.8003 10.0419 85.1166 9.9584 85.4025 9.88629C85.6883 9.81418 85.9074 9.74963 86.0599 9.69263C86.319 9.59573 86.4934 9.50446 86.583 9.41882C86.6822 9.31224 86.7004 9.1751 86.6377 9.0074C86.5921 8.88544 86.4961 8.72152 86.3496 8.51564C86.2184 8.30406 86.0101 8.02573 85.7246 7.68065C85.3916 7.30124 85.1462 6.99335 84.9883 6.75698C84.84 6.49966 84.7202 6.24904 84.629 6.00511C84.5207 5.71545 84.5572 5.44117 84.7384 5.18228C85.1771 4.63598 85.5547 4.25155 85.8711 4.02897C86.1971 3.78546 86.4668 3.6238 86.6802 3.544C86.8784 3.4699 87.0651 3.50437 87.2402 3.64741C87.4305 3.78476 87.6075 3.97924 87.7711 4.23085C87.9499 4.47677 88.1144 4.7541 88.2646 5.06285C88.4301 5.36591 88.5869 5.64609 88.7353 5.90341C88.8989 6.15502 89.053 6.35805 89.1976 6.5125C89.3575 6.66124 89.5136 6.70711 89.6661 6.65011C89.7576 6.61591 89.8739 6.48553 90.0151 6.25898C90.1563 6.03243 90.372 5.58688 90.6622 4.92233C90.8779 4.47678 91.063 4.11216 91.2176 3.82847C91.3722 3.54478 91.5562 3.36303 91.7696 3.28323C92.044 3.18063 92.306 3.16089 92.5555 3.224C92.8145 3.26616 93.0497 3.36068 93.261 3.50757C93.4818 3.63352 93.6703 3.78896 93.8263 3.97389C93.9766 4.14358 94.0774 4.29703 94.1287 4.43424C94.1971 4.61718 94.1397 4.88191 93.9565 5.22844C93.7885 5.56926 93.5901 5.92149 93.3611 6.28511C93.1417 6.62779 92.9376 6.96477 92.7486 7.29605C92.5693 7.60639 92.5052 7.83016 92.5565 7.96737C92.6078 8.10457 92.7697 8.16569 93.0421 8.15072C93.3298 8.13004 93.7852 8.04667 94.4082 7.9006C95.098 7.74697 95.641 7.66559 96.0372 7.65645C96.443 7.62637 96.7029 7.76378 96.8169 8.06869C96.9138 8.32786 96.9612 8.57079 96.9591 8.79748C96.9512 9.00892 96.9348 9.1975 96.9099 9.3632C96.8179 9.95365 96.6813 10.3783 96.5001 10.6372C96.3188 10.8961 96.1444 11.0569 95.9767 11.1196C95.7632 11.1994 95.5079 11.2601 95.2107 11.3018C94.9078 11.3281 94.6049 11.3545 94.302 11.3809C93.9933 11.392 93.7057 11.4127 93.4389 11.4429C93.1665 11.4579 92.9617 11.491 92.8245 11.5423C92.6568 11.605 92.5596 11.6935 92.5328 11.8078C92.5155 11.9011 92.5468 12.0545 92.6266 12.2679C92.6779 12.4051 92.7968 12.63 92.9831 12.9426C93.1695 13.2552 93.3721 13.5878 93.5908 13.9405C93.8038 14.2778 94.0064 14.6105 94.1985 14.9383C94.3905 15.2661 94.5179 15.5139 94.5806 15.6816C94.6661 15.9103 94.6383 16.1379 94.4971 16.3645C94.3559 16.591 94.1681 16.8089 93.9335 17.0183C93.6933 17.2123 93.4293 17.3892 93.1415 17.549C92.8689 17.703 92.6336 17.8171 92.4354 17.8912C92.0543 18.0337 91.7362 17.9267 91.4813 17.5702C91.2207 17.1985 90.9906 16.7458 90.7911 16.2122C90.6144 15.7396 90.4243 15.3242 90.2209 14.9658C90.0269 14.5866 89.8232 14.4368 89.6098 14.5166C89.4574 14.5736 89.3296 14.743 89.2264 15.0249C89.1233 15.3067 89.0134 15.6171 88.8969 15.9561C88.7899 16.2741 88.6696 16.5797 88.536 16.873C88.3966 17.151 88.2279 17.327 88.0297 17.4011C87.74 17.5094 87.5028 17.572 87.318 17.589C87.1275 17.5907 86.9751 17.5782 86.8608 17.5514C86.417 17.5262 86.0999 17.4449 85.9095 17.3076C85.7192 17.1702 85.5955 17.0253 85.5385 16.8729C85.4701 16.6899 85.4989 16.4185 85.625 16.0586C85.7511 15.6987 85.9525 15.215 86.2294 14.6076C86.4489 14.1259 86.5978 13.7574 86.6762 13.5022C86.7489 13.2318 86.7624 13.0356 86.7168 12.9136C86.6883 12.8374 86.6226 12.8011 86.5197 12.8048C86.4111 12.7933 86.2273 12.836 85.9681 12.9329Z" fill="#B8E830"/>
</svg>
